<svg data-v-fde0c5aa="" xmlns="http://www.w3.org/2000/svg" viewBox="0 0 300 300" class="iconLeftSlogan"><!----><defs data-v-fde0c5aa=""><!----></defs><rect data-v-fde0c5aa="" fill="transparent" x="0" y="0" width="300px" height="300px" class="logo-background-square"></rect><defs data-v-fde0c5aa=""><!----></defs><g data-v-fde0c5aa="" id="3eb1f660-f86c-4444-8466-7bd291468be5" fill="#000000" transform="matrix(1.9733700639430425,0,0,1.9733700639430425,114.79943178660331,119.72362334576619)"><path d="M5.89 3.98C5.40 3.92 5.18 3.92 4.66 3.92L1.19 3.92L1.19 13.58L4.65 13.58C5.17 13.58 5.39 13.58 5.88 13.52C8.12 13.26 9.93 11.61 9.93 8.62C9.93 5.64 8.13 4.23 5.89 3.98ZM5.35 11.83C5.03 11.86 4.77 11.86 4.37 11.86L3.39 11.86L3.39 5.63L4.38 5.63C4.79 5.63 5.04 5.64 5.36 5.67C6.72 5.82 7.62 6.83 7.62 8.65C7.62 10.51 6.71 11.68 5.35 11.83ZM14.64 5.92C12.17 5.92 10.71 7.52 10.71 9.84C10.71 12.17 12.17 13.78 14.64 13.78C17.11 13.78 18.58 12.17 18.58 9.84C18.58 7.52 17.11 5.92 14.64 5.92ZM14.64 12.26C13.59 12.26 12.96 11.40 12.96 9.84C12.96 8.29 13.59 7.43 14.64 7.43C15.68 7.43 16.31 8.29 16.31 9.84C16.31 11.40 15.68 12.26 14.64 12.26ZM27.27 6.12L25.07 6.12L25.07 7.10L24.58 6.31C24.21 6.08 23.46 5.92 22.85 5.92C20.93 5.92 19.29 7.24 19.29 9.91C19.29 12.12 20.64 13.57 22.71 13.57C23.46 13.57 24.09 13.38 24.51 13.08L25.07 12.25L25.07 12.45C25.07 12.80 25.06 13.12 25.05 13.38C24.99 14.49 24.28 15.01 23.20 15.01C22.29 15.01 21.69 14.64 21.62 14.04L21.60 13.92L19.47 13.92L19.49 14.06C19.66 15.72 20.94 16.63 23.14 16.63C25.58 16.63 27.17 15.53 27.26 13.13C27.27 12.73 27.27 12.15 27.27 11.69ZM23.30 12.05C22.26 12.05 21.55 11.21 21.55 9.74C21.55 8.12 22.30 7.43 23.37 7.43C24.19 7.43 25.07 7.99 25.07 9.59L25.07 9.73C25.07 11.44 24.29 12.05 23.30 12.05ZM40.52 3.92L38.33 3.92L38.33 7.98L34.10 7.98L34.10 3.92L31.91 3.92L31.91 13.58L34.10 13.58L34.10 9.70L38.33 9.70L38.33 13.58L40.52 13.58ZM46.54 13.58L48.68 13.58C48.57 12.75 48.54 12.25 48.54 11.69L48.54 9.42C48.54 8.99 48.52 8.57 48.50 8.22C48.38 6.89 47.59 5.92 45.37 5.92C43.55 5.92 42.11 6.89 42.07 8.60L44.17 8.60C44.23 7.85 44.60 7.43 45.29 7.43C45.95 7.43 46.28 7.80 46.33 8.25C46.35 8.50 46.35 8.69 46.35 8.89L46.35 9.02L45.88 9.02C43.25 9.02 41.80 9.97 41.80 11.59C41.80 13.01 42.94 13.78 44.20 13.78C44.88 13.78 45.51 13.62 46.05 13.29L46.38 12.49ZM45.07 12.26C44.46 12.26 44.06 11.97 44.06 11.41C44.06 10.54 45.00 10.21 46.35 10.32L46.35 10.86C46.35 11.79 45.72 12.26 45.07 12.26ZM57.62 6.12L55.24 6.12L53.54 11.89L51.81 6.12L49.38 6.12L52.30 13.58L54.71 13.58ZM65.10 9.72C65.10 7.73 63.87 5.92 61.49 5.92C59.12 5.92 57.62 7.63 57.62 9.87C57.62 12.50 59.26 13.78 61.35 13.78C63.17 13.78 64.57 12.87 64.97 11.14L62.80 11.14C62.68 11.84 62.16 12.26 61.39 12.26C60.56 12.26 59.95 11.84 59.82 10.42L65.06 10.42C65.09 10.15 65.10 9.91 65.10 9.72ZM61.39 7.43C62.20 7.43 62.69 7.98 62.82 9.03L59.88 9.03C60.06 7.92 60.61 7.43 61.39 7.43ZM73.51 7.98C73.35 6.68 72.44 5.92 70.87 5.92C70.17 5.92 69.64 6.06 69.13 6.40L68.52 7.29L68.52 6.12L66.32 6.12L66.32 13.58L68.52 13.58L68.52 10.12C68.52 8.22 69.16 7.43 70.03 7.43C70.88 7.43 71.30 7.91 71.36 8.67C71.39 9.04 71.39 9.42 71.39 9.70L71.39 13.58L73.58 13.58L73.58 9.37C73.58 8.76 73.57 8.36 73.51 7.98Z"></path></g><defs data-v-fde0c5aa=""><!----></defs><g data-v-fde0c5aa="" id="2156819f-10da-41c1-a085-49001fa90949" stroke="none" fill="#1abc9c" transform="matrix(0.6417156573438827,0,0,0.6417156573438827,40.01433045793655,123.5061536778055)"><switch><g><path d="M99.662 7.267C83.948-4.594 62.996 1.633 62.996 1.633 78.413-1.925 88.69 20.69 90.472 23.872c2.638 4.71 7.216 4.744 7.216 4.744-1.78-3.855.592-12.058 1.679-15.616 1.087-3.559.295-5.733.295-5.733zM36.923 1.633S15.97-4.594.256 7.267c0 0-.792 2.174.296 5.733 1.087 3.558 3.459 11.761 1.679 15.616 0 0 4.402-.034 7.216-4.744 1.872-3.131 12.057-25.797 27.476-22.239zM49.681 75.595c-6.078 2.149-10.228.519-10.228.519s2.593 6.746 10.599 6.449c8.006-.297 9.785-5.856 9.785-5.856-4.522 1.037-10.156-1.112-10.156-1.112z"></path><path d="M85.894 19.698S77.722.25 62.006 2.622l-1.778 2.174s-4.491-.961-10.268-.715c-5.777-.246-10.268.715-10.268.715l-1.779-2.174C22.198.25 13.853 20.809 13.853 20.809s3.798 6.918 7.256 9.586c0 0-3.655 19.57 9.688 30.738 0 0 1.977 8.006 4.448 10.279 2.438 2.244 6.617 5.449 14.715 2.103 8.098 3.347 12.275.142 14.714-2.103 2.471-2.273 4.449-10.279 4.449-10.279 13.342-11.168 9.687-30.738 9.687-30.738 3.459-2.669 7.084-10.697 7.084-10.697zM31.48 34.897c-3.954-.692-5.041-5.14-5.041-5.14.889-1.384 2.865-3.953 6.917-3.558 4.053.395 8.797 6.129 8.797 6.129-2.667 1.877-6.72 3.261-10.673 2.569zm27.851 24.778c-.149 1.038-2.002 2.298-2.595 2.373 0 0-.444-2.892-2.446-2.002-2.001.89-2.372 4.521-.593 4.966 1.779.445-.741 2.892-1.705 3.484-.963.594-1.557 2.372-1.557 3.262h-.021c0-.89-.593-2.668-1.557-3.262-.963-.593-3.484-3.04-1.704-3.484 1.779-.444 1.408-4.076-.594-4.966-2.001-.89-2.445 2.002-2.445 2.002-.594-.075-2.446-1.335-2.595-2.373-.148-1.038-.741-4.373 2.891-6.522 3.633-2.149 6.004-.52 6.004-.52h.021s2.373-1.63 6.004.52 3.04 5.484 2.892 6.522zm9.385-24.501c-3.955.692-8.006-.692-10.674-2.569 0 0 4.743-5.733 8.795-6.128 4.053-.396 6.03 2.173 6.92 3.559 0-.001-1.089 4.446-5.041 5.138z"></path></g></switch></g><defs data-v-fde0c5aa=""><!----></defs><g data-v-fde0c5aa="" id="c674f003-a4d5-4dd0-a4d2-95a2b3beb2a6" fill="#000000" transform="matrix(0.8156926496974424,0,0,0.8156926496974424,116.11996954477294,160.34655257866046)"><path d="M1.26 2.80L1.26 12.60L3.64 12.60C5.06 12.60 6.20 12.15 7.05 11.25C7.90 10.35 8.33 9.17 8.33 7.70C8.33 6.23 7.90 5.05 7.05 4.15C6.20 3.25 5.06 2.80 3.64 2.80ZM1.68 3.22L3.64 3.22C4.94 3.22 5.97 3.63 6.73 4.46C7.50 5.28 7.88 6.37 7.88 7.70C7.88 9.09 7.50 10.18 6.75 10.98C5.99 11.78 4.96 12.18 3.64 12.18L1.68 12.18ZM17.15 7.70C17.15 6.38 17.56 5.29 18.37 4.41C19.18 3.53 20.21 3.09 21.45 3.09C22.69 3.09 23.72 3.53 24.53 4.41C25.34 5.29 25.75 6.38 25.75 7.70C25.75 9.02 25.34 10.11 24.53 10.99C23.72 11.87 22.69 12.31 21.45 12.31C20.21 12.31 19.18 11.87 18.37 10.99C17.56 10.11 17.15 9.02 17.15 7.70ZM16.73 7.70C16.73 9.16 17.18 10.36 18.07 11.30C18.96 12.24 20.09 12.71 21.45 12.71C22.81 12.71 23.94 12.24 24.83 11.30C25.72 10.36 26.17 9.16 26.17 7.70C26.17 6.24 25.72 5.04 24.83 4.10C23.94 3.16 22.81 2.69 21.45 2.69C20.09 2.69 18.96 3.16 18.07 4.10C17.18 5.04 16.73 6.24 16.73 7.70ZM43.81 7.63L39.75 7.63L39.75 8.11L43.33 8.11C43.25 9.32 42.85 10.32 42.14 11.09C41.43 11.87 40.49 12.26 39.33 12.26C38.04 12.26 37.00 11.82 36.20 10.94C35.41 10.06 35.01 8.98 35.01 7.70C35.01 6.40 35.42 5.32 36.23 4.45C37.03 3.57 38.07 3.14 39.33 3.14C40.07 3.14 40.77 3.31 41.41 3.65C42.04 4.00 42.56 4.47 42.94 5.05L43.33 4.75C42.89 4.11 42.33 3.61 41.65 3.24C40.97 2.87 40.19 2.69 39.33 2.69C37.97 2.69 36.84 3.17 35.93 4.13C35.02 5.09 34.57 6.28 34.57 7.70C34.57 9.12 35.02 10.31 35.93 11.27C36.84 12.23 37.97 12.71 39.33 12.71C40.70 12.71 41.79 12.22 42.59 11.23C43.40 10.25 43.81 9.05 43.81 7.63ZM52.51 9.74L52.14 9.90C52.76 11.77 53.81 12.71 55.29 12.71C56.20 12.71 56.89 12.45 57.36 11.93C57.82 11.41 58.06 10.77 58.06 10.01C58.06 9.66 58.00 9.35 57.88 9.06C57.77 8.78 57.64 8.55 57.49 8.37C57.35 8.19 57.14 8.02 56.88 7.86C56.62 7.70 56.41 7.58 56.25 7.50C56.08 7.43 55.86 7.34 55.58 7.22C55.54 7.21 55.43 7.16 55.23 7.08C55.03 7.01 54.91 6.96 54.87 6.94C54.82 6.91 54.71 6.87 54.54 6.80C54.38 6.73 54.27 6.67 54.22 6.64C54.16 6.60 54.07 6.54 53.94 6.45C53.81 6.37 53.72 6.30 53.68 6.24C53.63 6.18 53.56 6.10 53.48 6.00C53.40 5.90 53.34 5.80 53.30 5.70C53.27 5.61 53.24 5.50 53.21 5.38C53.19 5.25 53.17 5.12 53.17 4.98C53.17 4.41 53.37 3.95 53.77 3.62C54.16 3.29 54.66 3.12 55.24 3.12C56.37 3.12 57.16 3.77 57.60 5.07L58.00 4.90C57.80 4.23 57.46 3.69 56.99 3.29C56.53 2.89 55.95 2.69 55.26 2.69C54.57 2.69 53.97 2.90 53.46 3.33C52.95 3.76 52.70 4.33 52.70 5.04C52.70 5.39 52.77 5.71 52.91 5.99C53.06 6.27 53.27 6.51 53.56 6.71C53.84 6.91 54.10 7.07 54.33 7.17C54.56 7.28 54.85 7.41 55.22 7.55C55.50 7.65 55.69 7.72 55.79 7.77C55.89 7.82 56.07 7.90 56.31 8.02C56.55 8.13 56.73 8.24 56.83 8.34C56.94 8.45 57.07 8.58 57.21 8.75C57.36 8.92 57.46 9.11 57.51 9.32C57.57 9.54 57.60 9.78 57.60 10.05C57.60 10.72 57.41 11.27 57.03 11.68C56.65 12.09 56.08 12.29 55.33 12.29C54.10 12.29 53.16 11.44 52.51 9.74ZM78.71 7.64L82.63 7.64L82.63 7.24L78.71 7.24L78.71 3.21L82.77 3.21L82.77 2.80L78.29 2.80L78.29 12.60L78.71 12.60ZM91.73 7.70C91.73 6.38 92.13 5.29 92.95 4.41C93.76 3.53 94.78 3.09 96.03 3.09C97.27 3.09 98.29 3.53 99.11 4.41C99.92 5.29 100.32 6.38 100.32 7.70C100.32 9.02 99.92 10.11 99.11 10.99C98.29 11.87 97.27 12.31 96.03 12.31C94.78 12.31 93.76 11.87 92.95 10.99C92.13 10.11 91.73 9.02 91.73 7.70ZM91.31 7.70C91.31 9.16 91.75 10.36 92.65 11.30C93.54 12.24 94.66 12.71 96.03 12.71C97.39 12.71 98.52 12.24 99.41 11.30C100.30 10.36 100.74 9.16 100.74 7.70C100.74 6.24 100.30 5.04 99.41 4.10C98.52 3.16 97.39 2.69 96.03 2.69C94.66 2.69 93.54 3.16 92.65 4.10C91.75 5.04 91.31 6.24 91.31 7.70ZM110.12 2.80ZM109.70 2.80L109.70 12.60L110.12 12.60L110.12 8.48L111.68 8.48L114.80 12.60L115.35 12.60L112.15 8.47C113.05 8.41 113.77 8.15 114.30 7.67C114.84 7.20 115.11 6.52 115.11 5.64C115.11 4.71 114.80 4.00 114.20 3.52C113.59 3.04 112.79 2.80 111.80 2.80ZM110.12 3.21L111.80 3.21C112.67 3.21 113.37 3.41 113.89 3.83C114.41 4.24 114.67 4.85 114.67 5.64C114.67 6.44 114.41 7.04 113.89 7.45C113.37 7.87 112.67 8.08 111.80 8.08L110.12 8.08ZM134.95 2.80L134.95 12.60L139.43 12.60L139.43 12.19L135.37 12.19L135.37 2.80ZM147.90 2.80L147.90 12.60L148.32 12.60L148.32 2.80ZM158.19 7.64L162.11 7.64L162.11 7.24L158.19 7.24L158.19 3.21L162.25 3.21L162.25 2.80L157.77 2.80L157.77 12.60L158.19 12.60ZM171.77 7.48L176.11 7.48L176.11 7.08L171.77 7.08L171.77 3.21L176.39 3.21L176.39 2.80L171.35 2.80L171.35 12.60L176.39 12.60L176.39 12.19L171.77 12.19Z"></path></g></svg>